<?xml version="1.0" standalone="no"?>
<!DOCTYPE svg PUBLIC "-//W3C//DTD SVG 20010904//EN"
 "http://www.w3.org/TR/2001/REC-SVG-20010904/DTD/svg10.dtd">
<svg version="1.0" xmlns="http://www.w3.org/2000/svg"
 width="724.000000pt" height="724.000000pt" viewBox="0 0 724.000000 724.000000"
 preserveAspectRatio="xMidYMid meet">
<metadata>
Created by potrace 1.11, written by Peter Selinger 2001-2013
</metadata>
<g transform="translate(0.000000,724.000000) scale(0.100000,-0.100000)"
fill="#000000" stroke="none">
<path d="M3459 6319 c-23 -12 -54 -22 -61 -21 -5 1 -8 -2 -8 -8 0 -5 -3 -9 -7
-8 -15 3 -63 -14 -63 -23 0 -4 -9 -6 -19 -4 -11 2 -22 -3 -25 -11 -3 -9 -10
-13 -15 -9 -5 3 -12 1 -16 -5 -4 -6 -11 -8 -16 -5 -5 4 -15 3 -21 -1 -7 -5
-29 -9 -48 -11 -19 -2 -40 -10 -46 -18 -6 -8 -13 -12 -16 -10 -3 3 -11 -8 -18
-24 -6 -16 -23 -38 -37 -48 -14 -10 -38 -30 -53 -44 -23 -22 -50 -39 -70 -43
-3 -1 -14 -6 -25 -12 -11 -5 -45 -9 -75 -8 -30 0 -59 -1 -64 -4 -20 -12 -62
-8 -78 6 -10 8 -18 11 -18 7 0 -5 -12 5 -26 23 -15 17 -30 29 -35 26 -5 -3 -9
-1 -9 5 0 6 -10 15 -21 22 -13 7 -19 7 -15 1 4 -7 -11 -14 -36 -19 -24 -5 -44
-6 -46 -2 -2 5 -10 5 -19 2 -8 -3 -19 0 -24 8 -6 10 -9 10 -9 2 0 -7 -7 -10
-15 -7 -8 4 -15 2 -15 -2 0 -5 -14 -10 -30 -11 -39 -3 -98 -31 -128 -60 -13
-13 -27 -23 -33 -23 -6 0 -7 -4 -4 -10 3 -5 0 -10 -7 -10 -7 0 -22 -11 -32
-25 -10 -13 -22 -22 -26 -20 -4 3 -11 -2 -14 -11 -3 -8 -11 -14 -18 -12 -7 2
-23 -7 -36 -20 -19 -19 -47 -28 -74 -23 -5 0 -8 -3 -8 -8 0 -10 -32 -7 -52 5
-7 4 -8 3 -4 -4 8 -13 -6 -17 -17 -5 -4 3 -20 8 -36 9 -16 2 -44 19 -65 38
-31 31 -39 34 -66 26 -17 -5 -30 -5 -30 0 0 5 -6 7 -12 5 -29 -10 -108 -13
-141 -5 -23 5 -39 4 -46 -3 -6 -6 -11 -8 -11 -3 0 11 -62 -35 -80 -59 -8 -11
-13 -24 -12 -30 2 -5 1 -7 -3 -3 -9 8 -35 -14 -28 -24 2 -5 -2 -8 -10 -8 -8 0
-18 -7 -21 -16 -3 -8 -10 -13 -15 -10 -5 3 -12 -1 -15 -10 -3 -8 -10 -12 -16
-9 -5 3 -10 2 -10 -2 0 -5 -24 -27 -52 -48 -29 -22 -56 -44 -60 -50 -4 -5 -8
-6 -8 -1 0 11 -97 -87 -125 -128 -11 -15 -27 -35 -35 -44 -8 -9 -14 -17 -12
-19 7 -9 0 -23 -12 -23 -7 0 -19 -7 -26 -15 -7 -8 -16 -13 -20 -10 -4 3 -19
-4 -32 -15 -14 -11 -28 -16 -32 -13 -3 3 -6 1 -6 -5 0 -7 -3 -11 -7 -10 -15 3
-58 -20 -85 -45 -15 -14 -29 -22 -32 -19 -6 5 -8 -22 -3 -34 1 -3 -10 -12 -25
-20 -16 -8 -29 -19 -29 -24 -5 -38 -20 -70 -33 -70 -7 0 -13 -6 -14 -12 0 -7
-3 -22 -6 -33 -2 -11 -5 -23 -5 -27 -1 -5 -8 -8 -16 -8 -8 0 -14 -3 -13 -7 1
-5 -6 -23 -15 -40 -10 -18 -15 -33 -12 -33 4 0 0 -6 -7 -14 -8 -7 -13 -28 -12
-45 1 -17 -2 -31 -8 -31 -5 0 -7 -4 -4 -9 4 -5 1 -11 -4 -13 -6 -2 -13 -17
-15 -33 -2 -17 -4 -31 -6 -32 -1 -2 -2 -6 -3 -10 -1 -5 -8 -19 -15 -31 -7 -13
-10 -26 -7 -29 3 -3 -1 -20 -8 -38 -11 -25 -11 -36 -3 -45 9 -10 9 -11 -3 -5
-13 8 -13 7 -1 -8 11 -14 11 -20 1 -32 -9 -10 -9 -15 -1 -15 8 0 8 -6 -1 -20
-7 -11 -17 -19 -23 -18 -13 3 -114 -49 -137 -69 -10 -9 -18 -12 -19 -7 0 5 -4
1 -8 -9 -4 -10 -10 -18 -15 -17 -13 2 -58 -102 -53 -122 3 -10 1 -18 -5 -18
-6 0 -8 -9 -5 -20 3 -11 1 -22 -4 -25 -4 -3 -6 -12 -3 -20 3 -7 1 -22 -4 -32
-7 -12 -7 -25 -1 -35 6 -11 6 -19 -1 -23 -6 -4 -8 -11 -4 -16 9 -15 13 -90 4
-84 -9 6 -20 -18 -27 -60 -3 -16 -10 -36 -15 -42 -6 -7 -7 -13 -3 -13 4 0 3
-6 -3 -12 -5 -7 -8 -23 -6 -35 2 -13 -1 -23 -7 -23 -6 0 -9 -10 -8 -22 2 -13
-1 -30 -6 -38 -10 -15 -12 -23 -19 -75 -5 -44 -36 -129 -50 -137 -7 -5 -6 -8
4 -8 13 0 13 -1 0 -10 -8 -5 -11 -10 -7 -10 4 0 3 -9 -3 -20 -8 -15 -8 -20 2
-20 9 0 10 -2 2 -8 -7 -4 -16 -23 -22 -42 -5 -19 -13 -44 -18 -54 -6 -15 -4
-17 7 -11 11 7 12 6 3 -6 -6 -8 -10 -25 -9 -39 1 -14 -3 -28 -9 -32 -6 -5 -7
-8 -1 -8 6 0 10 -27 10 -63 -1 -34 3 -72 7 -84 4 -13 4 -23 -1 -23 -9 0 -5
-55 5 -72 4 -7 2 -8 -4 -4 -9 5 -9 0 -2 -20 6 -15 8 -35 5 -45 -4 -11 -2 -19
4 -19 7 0 7 -8 1 -25 -5 -14 -6 -25 -2 -25 6 0 6 -38 -1 -132 -1 -16 -6 -28
-10 -28 -5 0 -5 -10 -2 -21 4 -12 8 -38 10 -59 2 -21 8 -47 13 -56 6 -11 7
-27 1 -41 -5 -13 -4 -25 1 -28 6 -4 10 -22 10 -41 0 -19 5 -34 10 -34 7 0 7
-6 0 -20 -7 -14 -7 -20 0 -20 5 0 10 -11 10 -25 0 -14 5 -25 11 -25 8 0 9 -4
0 -13 -6 -8 -8 -17 -4 -21 8 -8 10 -28 14 -123 2 -40 7 -73 11 -73 5 0 6 -10
3 -23 -4 -15 -1 -28 9 -36 9 -8 16 -20 16 -27 0 -8 6 -14 14 -14 8 0 17 -8 21
-19 3 -10 23 -38 45 -62 22 -24 40 -50 40 -57 0 -7 5 -10 10 -7 9 6 14 -8 11
-27 0 -5 6 -8 14 -8 8 0 15 -6 15 -13 0 -8 17 -32 38 -55 22 -23 37 -44 34
-46 -2 -3 5 -11 17 -18 12 -7 21 -18 21 -25 0 -7 5 -13 10 -13 6 0 15 -11 22
-25 6 -13 15 -22 19 -19 5 3 9 0 9 -6 0 -6 10 -21 23 -33 12 -13 38 -42 57
-66 44 -55 127 -141 135 -141 12 0 54 -48 47 -55 -4 -4 -2 -5 3 -4 15 5 55
-24 55 -39 0 -7 5 -10 10 -7 6 4 25 -7 42 -24 17 -17 35 -28 40 -25 4 3 8 -3
8 -12 0 -10 3 -15 6 -11 3 3 11 2 18 -4 6 -5 27 -23 46 -39 19 -16 43 -32 53
-36 9 -3 17 -10 17 -16 0 -6 3 -9 6 -6 3 3 17 -5 31 -18 14 -13 28 -22 31 -19
3 2 13 -7 24 -20 11 -14 26 -25 34 -25 8 0 14 -4 14 -9 0 -5 17 -15 38 -22 20
-6 42 -14 47 -18 6 -3 19 -7 30 -8 10 -2 22 -7 25 -12 4 -6 44 -20 65 -22 2 0
19 -5 37 -10 59 -18 73 -21 101 -23 15 0 27 -4 27 -8 0 -4 6 -5 14 -2 8 3 17
0 21 -5 3 -6 11 -9 16 -6 5 4 9 2 9 -3 0 -5 11 -8 25 -7 14 2 28 -1 31 -6 3
-6 11 -5 20 2 8 7 14 7 14 1 0 -5 14 -8 30 -7 17 1 30 -2 30 -9 0 -6 5 -4 10
4 5 8 10 10 10 4 0 -11 176 -14 195 -3 6 3 57 7 115 8 125 2 133 3 154 20 13
11 16 11 16 0 0 -9 3 -10 8 -4 4 6 14 10 22 10 8 -1 31 4 50 10 19 7 40 10 47
8 6 -2 14 0 17 6 4 6 13 8 21 4 8 -3 15 -1 15 3 0 5 11 10 25 11 45 4 55 6 55
13 0 4 7 7 15 8 8 1 22 3 30 4 8 1 15 4 15 8 0 4 11 6 25 5 14 -2 25 1 25 6 0
5 3 8 8 7 6 -1 112 21 132 27 3 1 20 6 38 10 17 4 32 11 32 15 0 5 11 7 25 5
14 -1 25 1 25 6 0 4 9 6 20 4 11 -2 20 0 20 5 0 5 9 7 20 5 11 -2 20 1 20 6 0
6 5 7 10 4 6 -4 17 -2 24 4 7 6 27 11 44 13 18 1 32 6 32 10 0 4 3 7 8 6 13
-3 77 14 90 24 8 7 12 6 12 -3 0 -9 3 -10 8 -3 11 16 52 24 52 11 0 -7 5 -5
10 3 5 8 10 11 10 6 0 -5 6 -3 14 3 8 6 18 11 22 9 5 -1 23 5 40 15 17 9 34
13 38 10 3 -4 6 -1 6 6 0 7 5 9 10 6 6 -3 10 -1 10 4 0 6 7 11 15 11 8 0 15 5
15 10 0 6 5 10 10 10 6 0 28 11 51 25 22 14 44 23 49 20 4 -3 10 0 12 5 2 6
17 13 33 15 17 2 30 4 30 5 0 1 11 3 24 6 14 2 30 9 37 15 8 7 14 7 19 -1 4
-6 12 -7 18 -2 7 4 32 7 57 6 49 -2 105 18 131 47 9 10 19 16 22 13 3 -3 8 4
12 15 3 12 10 19 15 16 5 -3 12 15 16 41 3 25 12 50 18 55 61 49 74 58 80 52
3 -3 6 -1 6 5 0 7 7 12 16 12 8 0 13 4 9 9 -3 5 5 13 17 17 13 4 31 16 41 27
9 11 17 17 17 13 0 -7 14 4 51 36 10 10 23 18 29 18 6 0 10 5 10 11 0 5 5 7
10 4 6 -4 9 -3 8 2 -3 10 122 133 135 133 4 0 6 4 3 8 -3 5 15 21 39 37 25 15
45 32 45 37 0 5 4 7 9 3 5 -3 12 4 16 15 4 11 11 18 16 15 5 -4 9 -2 9 3 0 5
12 15 28 23 15 8 36 22 47 32 28 26 71 48 79 40 3 -4 6 -2 6 4 0 6 14 16 30
23 17 7 30 16 30 21 0 5 6 9 14 9 8 0 21 9 28 19 8 11 27 21 44 24 30 5 114
43 124 57 6 7 32 18 40 16 3 0 18 7 33 17 15 10 32 15 37 12 6 -3 10 -2 10 3
0 5 18 17 40 27 22 10 40 22 40 27 0 5 5 6 10 3 6 -3 10 -1 10 4 0 6 7 11 15
11 8 0 15 4 15 10 0 5 3 9 8 8 4 -1 34 11 67 26 33 15 67 29 74 30 8 2 17 8
19 14 2 7 8 10 13 6 5 -3 15 -2 22 3 6 4 23 9 36 11 14 2 33 8 43 13 13 7 18
6 18 -2 0 -8 4 -9 13 0 8 6 17 8 20 4 4 -3 7 -2 7 3 0 5 15 10 33 11 70 5 93
11 130 31 20 12 37 20 37 18 0 -8 75 16 125 39 61 28 163 66 173 63 4 -1 27 5
52 12 83 25 157 34 165 20 3 -5 15 -6 28 -1 12 5 30 7 40 6 9 -2 17 1 17 6 0
5 10 5 24 -1 13 -5 27 -6 31 -2 4 4 10 8 13 8 38 8 52 19 52 40 0 13 8 32 18
42 9 9 26 36 36 60 10 23 24 42 29 42 6 0 7 3 4 7 -4 4 4 19 19 34 14 15 26
31 26 36 -1 4 12 22 29 40 16 18 30 38 31 45 2 7 6 15 10 18 3 3 8 12 10 20 2
7 15 26 30 41 16 17 23 29 16 31 -7 3 2 13 19 23 18 10 30 22 27 27 -3 4 4 20
15 34 12 15 21 23 21 19 0 -5 8 -1 19 9 10 9 31 18 47 19 16 1 38 10 48 19 10
10 23 15 27 12 5 -2 16 8 26 23 22 33 60 72 66 67 2 -2 4 4 5 14 5 41 1 66
-11 74 -8 5 -9 8 0 8 12 0 11 38 -1 58 -3 6 1 18 10 26 8 9 12 16 7 16 -5 0
-7 17 -6 38 2 20 4 70 5 110 1 39 6 72 11 72 4 0 5 5 2 11 -4 5 5 20 19 33 24
20 72 96 61 96 -2 0 7 11 21 25 14 14 29 25 34 25 4 0 6 12 4 28 -5 28 -6 93
-2 127 3 29 -12 85 -23 85 -6 0 -7 5 -4 10 3 6 1 10 -5 10 -7 0 -10 7 -6 15 3
8 1 15 -5 15 -9 0 -26 34 -27 54 0 5 -4 12 -9 15 -4 3 -14 17 -21 30 -11 19
-11 22 0 16 10 -6 11 -5 1 6 -7 7 -13 27 -13 44 0 17 -11 53 -24 81 -13 27
-22 60 -21 74 1 14 0 30 -4 35 -3 6 -6 26 -8 45 -1 19 -5 46 -8 60 -4 14 -10
40 -12 59 -6 36 -27 83 -37 82 -3 -1 -5 1 -3 4 3 7 -46 40 -55 37 -5 -1 -8 3
-8 9 0 14 -207 219 -222 219 -6 0 -8 3 -5 6 3 4 -7 19 -23 34 -16 15 -27 29
-25 32 2 2 -14 23 -35 47 -22 24 -37 48 -33 54 3 5 2 7 -4 4 -5 -3 -17 5 -27
19 -11 13 -25 24 -32 24 -8 0 -14 5 -14 11 0 15 -26 39 -34 32 -3 -4 -6 -1 -6
5 0 7 -9 12 -20 12 -11 0 -20 5 -20 10 0 6 -9 10 -20 10 -11 0 -20 4 -20 9 0
5 -9 11 -20 14 -11 3 -20 1 -20 -5 0 -5 -6 -6 -12 -1 -7 4 -16 8 -20 9 -5 1
-9 2 -10 3 -2 2 -46 5 -98 7 -152 8 -160 9 -160 18 0 4 -9 6 -20 3 -11 -3 -20
-1 -20 5 0 6 -7 8 -15 5 -8 -4 -17 -2 -20 3 -4 6 -17 10 -30 10 -13 0 -27 5
-30 10 -3 6 -17 10 -31 10 -14 0 -22 4 -19 10 3 6 -1 10 -9 10 -9 0 -16 5 -16
11 0 6 -7 8 -15 5 -10 -4 -20 3 -27 19 -6 13 -15 22 -19 19 -5 -3 -9 2 -9 10
0 9 -4 16 -10 16 -5 0 -10 7 -10 15 0 8 -10 26 -22 41 -13 14 -22 28 -20 30 4
6 -37 45 -78 74 -19 14 -43 32 -53 40 -10 8 -22 16 -27 16 -6 1 -12 3 -15 4
-3 1 -13 3 -22 4 -10 1 -23 4 -28 8 -13 8 -260 -3 -260 -12 0 -1 -13 -4 -30
-5 -32 -4 -100 -13 -125 -18 -8 -1 -20 -6 -26 -10 -7 -4 -14 0 -18 8 -3 8 -12
12 -21 9 -8 -3 -15 -2 -15 3 0 5 -10 10 -22 10 -13 1 -24 7 -26 13 -2 5 -10
10 -17 10 -7 0 -16 7 -19 16 -3 8 -10 12 -16 9 -5 -3 -10 -2 -10 3 0 5 -12 15
-27 23 -30 15 -53 33 -87 64 -29 28 -114 69 -137 68 -10 -1 -19 2 -19 7 0 4
-8 7 -17 5 -10 -1 -24 2 -30 8 -7 5 -13 5 -13 0 0 -5 -21 -9 -47 -10 -27 0
-84 -4 -128 -8 -122 -11 -186 -8 -212 8 -7 5 -17 5 -23 2 -5 -3 -10 -1 -10 5
0 6 -4 8 -10 5 -5 -3 -10 -2 -10 4 0 5 -9 8 -19 6 -11 -2 -25 3 -31 11 -7 7
-15 12 -19 11 -3 -2 -17 8 -31 21 -14 14 -19 21 -11 17 10 -6 12 -4 7 4 -8 12
-46 5 -57 -11 -3 -5 -19 2 -35 14 -15 13 -29 21 -29 20 0 -11 -77 13 -82 25
-3 8 -12 12 -19 9 -7 -3 -16 -1 -19 4 -3 5 -13 8 -23 8 -25 -1 -46 5 -54 17
-8 11 -208 14 -229 4z"/>
</g>
</svg>
